{"title":"Private_Sessions_Meatloaf","uid":6020410,"size":1055581136,"categoryP":"video","categoryS":"tv_shows","magnet":"?xt=urn:btih:714d05bbbfeb514f24c79000b8b6d6d5c62b2416&amp;dn=Private_Sessions_Meatloaf&amp;tr=udp%3A%2F%2Ftracker.openbittorrent.com%3A80&amp;tr=udp%3A%2F%2Fopen.demonii.com%3A1337&amp;tr=udp%3A%2F%2Ftracker.coppersurfer.tk%3A6969&amp;tr=udp%3A%2F%2Fexodus.desync.com%3A6969","seeders":0,"leechers":1,"uploader":"thetorrentlord","files":3,"time":1291786257,"description":"The MP3 IS one continuous file of the whole video file. This was from a SD recording.                                                                                                    ******************************************************************************************** Private_Sessions_Meatloaf_20101205.avi\nFormat                           : AVI\nFormat/Info                      : Audio Video Interleave\nFile size                        : 972 MiB\nDuration                         : 1h 25mn\nOverall bit rate                 : 1 582 Kbps\nMovie name                       : Private_Sessions_Meatloaf_20101205.mpg\nDirector                         : created.with.SUPER(C).v2010.bld.37\nWriting application              : SUPER(C)   \n\nVideo\nID                               : 0\nFormat                           : MPEG-4 Visual\nFormat profile                   : Simple@L3\nFormat settings, BVOP            : No\nFormat settings, QPel            : No\nFormat settings, GMC             : No warppoints\nFormat settings, Matrix          : Default (H.263)\nCodec ID                         : XVID\nCodec ID/Hint                    : XviD\nDuration                         : 42mn 57s\nBit rate                         : 3 039 Kbps\nWidth                            : 624 pixels\nHeight                           : 352 pixels\nDisplay aspect ratio             : 16:9\nFrame rate                       : 23.976 fps\nColor space                      : YUV\nChroma subsampling               : 4:2:0\nBit depth                        : 8 bits\nScan type                        : Progressive\nBits/(Pixel*Frame)               : 0.577\nStream size                      : 934 MiB (96%)\nWriting library                  : XviD 1.1.2 (UTC 2006-11-01)\n\nAudio\nID                               : 1\nFormat                           : MPEG Audio\nFormat version                   : Version 2\nFormat profile                   : Layer 3\nMode                             : Joint stereo\nMode extension                   : MS Stereo\nCodec ID                         : 55\nCodec ID/Hint                    : MP3\nDuration                         : 1h 25mn\nBit rate mode                    : Constant\nBit rate                         : 112 Kbps\nChannel(s)                       : 2 channels\nSampling rate                    : 22.05 KHz\nStream size                      : 34.4 MiB (4%)\nAlignment                        : Aligned on interleaves\nInterleave, duration             : 26 ms (0.63 video frame)\nInterleave, preload duration     : 26 ms\nWriting library                  : LAME3.98Ã‚ÂªÃ‚ÂªÃ‚ÂªÃ‚Âª $|Ã‚Â¯`%`H\n\n","torrent":{"xt":"urn:btih:714d05bbbfeb514f24c79000b8b6d6d5c62b2416","amp;dn":"Private_Sessions_Meatloaf","amp;tr":["udp%3A%2F%2Ftracker.openbittorrent.com%3A80","udp%3A%2F%2Fopen.demonii.com%3A1337","udp%3A%2F%2Ftracker.coppersurfer.tk%3A6969","udp%3A%2F%2Fexodus.desync.com%3A6969"],"infoHash":"714d05bbbfeb514f24c79000b8b6d6d5c62b2416","infoHashBuffer":{"type":"Buffer","data":[113,77,5,187,191,235,81,79,36,199,144,0,184,182,214,213,198,43,36,22]},"announce":[],"urlList":[]}}